<svg width="24" height="24" viewBox="0 0 24 24" fill="none" xmlns="http://www.w3.org/2000/svg">
<path d="M11.5 4H5C3.75735 4 2.75 5.00735 2.75 6.25V19.25C2.75 20.4927 3.75735 21.5 5 21.5H18C19.2427 21.5 20.25 20.4927 20.25 19.25V12.75" stroke="#844704" stroke-width="2" stroke-linecap="round"/>
<path d="M12.1822 10.2306C12.2776 9.79718 12.4951 9.40008 12.809 9.08625L19.014 2.88118C19.6389 2.25632 20.652 2.25632 21.2768 2.88118C21.9017 3.50603 21.9017 4.51913 21.2768 5.14398L15.0718 11.3491C14.7579 11.6629 14.3608 11.8804 13.9274 11.9759L11.8433 12.4349C11.7714 12.4507 11.7073 12.3866 11.7231 12.3147L12.1822 10.2306Z" stroke="#844704"/>
</svg>
