<svg width="714" height="464" viewBox="0 0 714 464" fill="none" xmlns="http://www.w3.org/2000/svg">
<g clip-path="url(#clip0_11_2)">
<path d="M697.049 283.381H671.944C671.408 283.382 670.878 283.262 670.395 283.029C669.912 282.796 669.487 282.457 669.154 282.037C668.825 281.628 668.592 281.149 668.474 280.637C668.356 280.125 668.356 279.593 668.473 279.081C670.831 268.674 670.717 257.86 668.141 247.505C667.942 246.713 668.024 245.877 668.373 245.138C668.721 244.4 669.315 243.805 670.054 243.455C680.54 238.548 690.17 238.676 698.674 243.835C699.12 244.101 699.502 244.462 699.794 244.892C700.086 245.321 700.281 245.809 700.366 246.322C702.168 257.58 702.237 269.047 700.57 280.325C700.452 281.174 700.03 281.952 699.383 282.513C698.736 283.075 697.906 283.384 697.049 283.381Z" fill="#C9A899"/>
<path d="M696.668 266.936H677.472C676.995 266.935 676.538 266.745 676.202 266.407C675.865 266.069 675.675 265.612 675.675 265.135C675.675 264.658 675.865 264.201 676.202 263.863C676.538 263.526 676.995 263.336 677.472 263.335H696.668C697.145 263.336 697.602 263.526 697.939 263.863C698.276 264.201 698.465 264.658 698.465 265.135C698.465 265.612 698.276 266.069 697.939 266.407C697.602 266.745 697.145 266.935 696.668 266.936Z" fill="white"/>
<path d="M696.668 260.621H677.472C676.995 260.62 676.538 260.43 676.202 260.093C675.865 259.755 675.675 259.298 675.675 258.821C675.675 258.344 675.865 257.887 676.202 257.549C676.538 257.211 676.995 257.021 677.472 257.02H696.668C697.145 257.021 697.602 257.211 697.939 257.549C698.276 257.887 698.465 258.344 698.465 258.821C698.465 259.298 698.276 259.755 697.939 260.093C697.602 260.43 697.145 260.62 696.668 260.621Z" fill="white"/>
<path d="M194.303 280.865C267.981 280.865 327.708 221.143 327.708 147.473C327.708 73.8024 267.981 14.0807 194.303 14.0807C120.626 14.0807 60.8989 73.8024 60.8989 147.473C60.8989 221.143 120.626 280.865 194.303 280.865Z" fill="#F2F2F2"/>
<path d="M349.021 276.918C362.972 276.918 374.281 265.61 374.281 251.661C374.281 237.711 362.972 226.403 349.021 226.403C335.07 226.403 323.761 237.711 323.761 251.661C323.761 265.61 335.07 276.918 349.021 276.918Z" fill="#F2F2F2"/>
<path d="M476.111 333.748C481.778 333.748 486.373 329.154 486.373 323.487C486.373 317.82 481.778 313.226 476.111 313.226C470.443 313.226 465.849 317.82 465.849 323.487C465.849 329.154 470.443 333.748 476.111 333.748Z" fill="#F2F2F2"/>
<path d="M555.344 363.845C551.016 330.779 530.297 298.305 498.665 287.738C511.331 321.719 511.567 359.085 499.333 393.224C494.567 406.372 487.897 420.501 492.544 433.692C495.435 441.9 502.419 448.15 510.206 452.035C517.993 455.921 526.62 457.742 535.138 459.525L536.821 460.899C550.131 430.322 559.671 396.91 555.344 363.845Z" fill="#C9A899"/>
<path d="M498.356 288.366C516.868 308.841 528.458 334.629 531.479 362.065C532.09 367.947 532.198 373.967 530.949 379.776C529.687 385.43 526.935 390.642 522.977 394.872C519.367 398.89 515.208 402.582 512.637 407.408C509.927 412.494 509.858 418.255 511.77 423.627C514.11 430.2 518.672 435.541 523.314 440.609C528.469 446.236 533.912 451.998 536.136 459.488C536.406 460.395 537.798 459.924 537.529 459.018C533.66 445.988 520.939 438.654 514.82 426.935C511.965 421.467 510.74 415.105 513.347 409.297C515.627 404.218 519.912 400.407 523.603 396.37C527.479 392.131 530.441 387.489 531.947 381.9C533.488 376.183 533.615 370.146 533.156 364.274C532.018 350.967 528.794 337.922 523.603 325.616C517.756 311.539 509.544 298.566 499.322 287.258C498.689 286.558 497.727 287.671 498.356 288.366Z" fill="white"/>
<path d="M531.026 353.173C535.561 352.042 539.546 349.335 542.269 345.537C544.993 341.739 546.277 337.096 545.893 332.438C545.812 331.496 544.344 331.578 544.425 332.521C544.791 336.858 543.594 341.182 541.051 344.714C538.507 348.246 534.785 350.752 530.556 351.781C529.638 352.005 530.113 353.397 531.026 353.173Z" fill="white"/>
<path d="M525.077 393.076C516.842 388.231 510.736 380.46 507.977 371.313C507.704 370.407 506.312 370.878 506.584 371.783C509.473 381.296 515.844 389.369 524.424 394.393C525.242 394.871 525.89 393.551 525.077 393.076Z" fill="white"/>
<path d="M516.401 312.94C514.738 313.744 512.901 314.122 511.055 314.04C509.21 313.958 507.413 313.419 505.828 312.471C505.016 311.983 504.369 313.303 505.175 313.788C506.932 314.827 508.916 315.42 510.955 315.515C512.994 315.61 515.025 315.204 516.871 314.333C517.052 314.265 517.2 314.132 517.286 313.959C517.371 313.786 517.388 313.587 517.332 313.402C517.269 313.218 517.136 313.066 516.961 312.98C516.787 312.893 516.586 312.879 516.401 312.94Z" fill="white"/>
<path d="M402.836 347.46C403.335 347.78 403.833 348.099 404.332 348.431C411.007 352.759 417.319 357.622 423.207 362.972C423.668 363.379 424.13 363.797 424.579 364.216C438.626 377.257 450.13 392.793 458.505 410.033C461.831 416.896 464.63 424.002 466.878 431.29C469.982 441.355 472.547 452.515 478.617 460.726C479.24 461.589 479.917 462.414 480.642 463.194L535.015 462.846C535.138 462.783 535.262 462.732 535.386 462.669L537.557 462.755C537.467 462.371 537.366 461.975 537.276 461.591C537.225 461.368 537.162 461.145 537.111 460.922C537.073 460.773 537.035 460.625 537.009 460.488C536.997 460.439 536.983 460.389 536.971 460.352C536.945 460.216 536.907 460.092 536.881 459.968C536.321 457.751 535.745 455.535 535.152 453.318C535.152 453.306 535.152 453.306 535.14 453.293C530.577 436.415 524.566 419.769 516.219 404.565C515.968 404.108 515.717 403.638 515.441 403.181C511.64 396.348 507.288 389.838 502.426 383.714C499.754 380.37 496.913 377.163 493.916 374.105C486.157 366.221 477.206 359.606 467.392 354.502C447.824 344.332 425.222 340.532 404.421 346.954C403.889 347.119 403.368 347.283 402.836 347.46Z" fill="#844704"/>
<path d="M402.963 348.15C430.073 353.353 454.854 366.966 473.786 387.054C477.816 391.382 481.527 396.123 484.027 401.514C486.424 406.787 487.365 412.606 486.752 418.366C486.288 423.748 485.191 429.2 486.044 434.6C486.943 440.293 490.356 444.934 495.118 448.072C500.943 451.912 507.802 453.43 514.56 454.682C522.064 456.071 529.88 457.395 536.165 462.036C536.927 462.599 537.755 461.384 536.994 460.823C526.059 452.748 511.487 454.551 499.545 448.878C493.972 446.23 489.164 441.888 487.748 435.681C486.51 430.253 487.637 424.631 488.153 419.186C488.695 413.468 488.266 407.978 486.103 402.609C483.891 397.117 480.357 392.22 476.456 387.808C467.534 377.868 457.105 369.393 445.55 362.693C432.406 354.973 418.037 349.558 403.067 346.683C402.14 346.506 402.043 347.973 402.963 348.15Z" fill="white"/>
<path d="M468.071 380.227C471.01 376.593 472.562 372.033 472.449 367.361C472.337 362.689 470.567 358.209 467.456 354.721C466.824 354.017 465.701 354.966 466.333 355.671C469.236 358.913 470.885 363.087 470.981 367.438C471.077 371.788 469.614 376.03 466.857 379.398C466.259 380.13 467.476 380.955 468.071 380.227Z" fill="white"/>
<path d="M487.346 415.668C477.854 416.757 468.3 414.228 460.59 408.587C459.826 408.027 458.998 409.241 459.76 409.8C467.795 415.656 477.743 418.267 487.618 417.113C488.559 417.002 488.282 415.558 487.346 415.668Z" fill="white"/>
<path d="M432.168 356.907C431.323 358.55 430.084 359.958 428.561 361.003C427.039 362.049 425.28 362.7 423.443 362.898C422.501 362.997 422.779 364.441 423.715 364.343C425.743 364.114 427.685 363.393 429.37 362.241C431.055 361.09 432.432 359.543 433.381 357.737C433.485 357.574 433.523 357.378 433.487 357.188C433.452 356.998 433.345 356.829 433.189 356.715C433.028 356.606 432.83 356.565 432.639 356.601C432.448 356.637 432.278 356.747 432.168 356.907Z" fill="white"/>
<path d="M663.621 234.62L656.268 163.453L654.327 134.163L674.908 130.442C674.908 130.442 677.99 150.578 680.686 162.394C683.347 174.054 677.142 233.057 676.978 234.613C678.489 235.965 679.555 237.743 680.033 239.713C680.512 241.683 680.381 243.752 679.658 245.647C678.935 247.541 677.654 249.171 675.985 250.321C674.315 251.472 672.335 252.088 670.308 252.089C668.28 252.09 666.3 251.475 664.629 250.327C662.959 249.178 661.676 247.549 660.951 245.655C660.227 243.762 660.094 241.693 660.571 239.722C661.047 237.752 662.111 235.972 663.621 234.62Z" fill="#FFB8B8"/>
<path d="M579.519 453.132H569.049L564.068 412.751L579.52 412.752L579.519 453.132Z" fill="#FFB6B6"/>
<path d="M582.189 463.28L548.429 463.279V462.852C548.429 459.368 549.814 456.026 552.278 453.562C554.742 451.098 558.085 449.714 561.569 449.714H561.57L567.737 445.036L579.242 449.714L582.189 449.714L582.189 463.28Z" fill="#2F2E41"/>
<path d="M671.795 453.132H661.325L656.344 412.751L671.797 412.752L671.795 453.132Z" fill="#FFB6B6"/>
<path d="M674.465 463.28L640.705 463.279V462.852C640.706 459.368 642.09 456.026 644.554 453.562C647.019 451.098 650.361 449.714 653.846 449.714H653.846L660.013 445.036L671.519 449.714L674.466 449.714L674.465 463.28Z" fill="#2F2E41"/>
<path d="M655.871 237.012L664.677 320.663C664.677 320.663 676.4 404.422 674.198 415.979C671.997 427.536 674.749 429.187 674.749 429.187L654.66 427.756C654.66 427.756 655.211 420.602 651.909 417.3C648.606 413.998 650.257 404.092 650.257 404.092L611.289 267.831L587.623 339.375C587.623 339.375 583.77 418.072 583.22 419.173C582.669 420.274 581.018 435.133 581.018 435.133H560.654C560.654 435.133 563.406 426.327 559.553 423.576C555.7 420.824 552.398 423.025 555.7 418.072C559.003 413.119 560.103 407.066 559.003 404.314C557.902 401.562 557.902 390.556 557.902 390.556C557.902 390.556 559.553 241.966 568.91 237.013C578.266 232.06 655.871 237.012 655.871 237.012Z" fill="#2F2E41"/>
<path d="M614.167 67.641C626.129 67.641 635.826 57.9447 635.826 45.9836C635.826 34.0225 626.129 24.3262 614.167 24.3262C602.204 24.3262 592.507 34.0225 592.507 45.9836C592.507 57.9447 602.204 67.641 614.167 67.641Z" fill="#FFB8B8"/>
<path d="M678.378 141.796L657.076 149.435L650.588 151.759L645.852 91.2776L662.104 99.8964C662.132 99.9165 662.156 99.9406 662.176 99.9678C664.991 103.076 667.347 106.571 669.172 110.346C678.085 128.464 678.378 141.796 678.378 141.796Z" fill="#3F3D56"/>
<path d="M531.629 229.51C531.629 229.51 553.28 162.247 553.659 161.44C556.495 139.908 564.651 130.409 565.873 131.441L586.924 138.733C586.924 138.733 580.663 158.559 576.423 170.336C572.372 181.589 544.629 233.543 543.85 234.9C544.686 236.747 544.942 238.804 544.584 240.8C544.226 242.795 543.27 244.635 541.844 246.076C540.417 247.516 538.586 248.49 536.594 248.868C534.602 249.245 532.542 249.01 530.687 248.191C528.832 247.373 527.269 246.011 526.205 244.285C525.141 242.559 524.626 240.551 524.728 238.526C524.83 236.502 525.545 234.555 526.777 232.945C528.009 231.336 529.701 230.138 531.629 229.51Z" fill="#FFB8B8"/>
<path d="M597.037 95.1727C597.037 95.1727 578.811 86.2411 571.742 103.783C567.112 115.614 564.92 120.774 561.829 133.096C561.829 133.096 580.407 135.883 586.364 146.38L597.037 95.1727Z" fill="#3F3D56"/>
<path d="M663.356 246.13C621.41 254.791 565.822 239.9 565.822 239.9L580.651 175.627L575.379 108.365C574.735 100.14 579.421 92.4291 586.71 89.6969L596.774 85.9275L605.093 74.0185L628.856 74.7981L638.356 87.3007L645.852 91.2776L662.104 99.8964L662.176 99.9321V99.9678L657.076 149.435L654 179.261C654 179.261 663.342 212.806 661.425 217.255C659.508 221.697 661.175 219.551 661.639 221.926C662.104 224.3 663.528 224.45 663.742 229.128C663.964 233.799 663.356 246.13 663.356 246.13Z" fill="#3F3D56"/>
<path d="M637.663 38.2716C635.951 36.5831 638.528 32.1132 638.041 29.7587C637.483 27.0593 634.508 26.9803 633.798 24.3167C633.035 21.4513 629.982 19.8914 627.159 18.9833C619.922 16.668 612.2 16.3144 604.782 17.9585C601.499 18.7601 598.267 19.7558 595.102 20.9403C592.917 21.7092 595.024 19.6169 592.839 20.3858C592.012 20.5701 591.282 21.0543 590.791 21.7449C590.398 22.4875 590.928 23.6751 591.754 23.5246C589.087 24.7008 586.419 25.877 583.752 27.0531C585.248 28.62 586.744 30.187 588.24 31.754C586.113 31.1487 583.846 33.6841 584.684 35.7298C585.022 36.3756 585.511 36.9297 586.11 37.3444C586.709 37.7591 587.4 38.0219 588.123 38.1102C590.526 38.5777 588.704 40.864 591.151 40.8195C593.598 40.7749 610.664 35.7588 611.853 37.8977C612.701 39.4207 612.608 41.4382 613.817 42.693C615.365 44.2984 618.067 43.7113 620.037 42.6661C622.007 41.621 624.005 40.1845 626.221 40.4351C628.534 40.6967 630.284 44.9715 630.853 47.2287C631.423 49.486 631.063 51.861 630.701 54.1607C630.225 57.1809 625.456 60.201 624.98 63.2211C630.272 64.6844 635.949 60.0284 638.041 51.9315C637.833 46.8132 641.31 41.8694 637.663 38.2716Z" fill="#2F2E41"/>
<path d="M300.948 319.544C237.187 319.547 181.71 271.987 173.515 207.118L175.081 206.92C183.175 270.988 237.976 317.962 300.949 317.965C306.299 317.965 311.644 317.628 316.952 316.956C386.406 308.182 435.772 244.546 426.998 175.098L428.565 174.9C437.448 245.211 387.467 309.64 317.15 318.522C311.776 319.202 306.364 319.543 300.948 319.544Z" fill="#3F3D56"/>
<path d="M304.371 345.945H279.266C278.73 345.946 278.2 345.826 277.717 345.593C277.234 345.36 276.81 345.021 276.476 344.601C276.147 344.192 275.914 343.713 275.796 343.201C275.678 342.689 275.678 342.157 275.795 341.645C278.177 331.132 278.037 320.204 275.385 309.756C275.204 309.034 275.255 308.274 275.532 307.583C275.808 306.893 276.296 306.307 276.925 305.909C285.61 300.53 295.067 300.698 305.838 306.424C306.328 306.682 306.751 307.049 307.075 307.497C307.4 307.946 307.616 308.463 307.707 309.009C309.491 320.227 309.553 331.652 307.892 342.889C307.774 343.738 307.352 344.515 306.705 345.077C306.058 345.639 305.229 345.947 304.371 345.945Z" fill="#C9A899"/>
<path d="M189.912 211.763H164.807C164.27 211.765 163.741 211.644 163.257 211.412C162.774 211.179 162.35 210.84 162.017 210.42C161.687 210.01 161.455 209.532 161.337 209.02C161.219 208.507 161.218 207.975 161.335 207.463C163.726 196.914 163.576 185.948 160.897 175.468C160.728 174.778 160.769 174.053 161.015 173.386C161.261 172.72 161.701 172.142 162.278 171.728C175.187 162.444 185.354 162.714 192.495 172.53C192.817 172.977 193.031 173.493 193.12 174.037C195.028 185.507 195.133 197.205 193.433 208.708C193.315 209.557 192.893 210.334 192.245 210.896C191.598 211.458 190.769 211.766 189.912 211.763Z" fill="#CCCCCC"/>
<path d="M292.641 322.385H284.005C283.528 322.384 283.071 322.194 282.734 321.856C282.397 321.519 282.208 321.061 282.208 320.585C282.208 320.108 282.397 319.65 282.734 319.313C283.071 318.975 283.528 318.785 284.005 318.784H292.641C293.119 318.784 293.577 318.974 293.914 319.311C294.252 319.649 294.442 320.107 294.442 320.585C294.442 321.062 294.252 321.52 293.914 321.858C293.577 322.195 293.119 322.385 292.641 322.385Z" fill="white"/>
<path d="M303.201 329.499H284.005C283.528 329.498 283.071 329.308 282.734 328.971C282.397 328.633 282.208 328.176 282.208 327.699C282.208 327.222 282.397 326.765 282.734 326.427C283.071 326.09 283.528 325.899 284.005 325.898H303.201C303.678 325.899 304.135 326.09 304.472 326.427C304.808 326.765 304.998 327.222 304.998 327.699C304.998 328.176 304.808 328.633 304.472 328.971C304.135 329.308 303.678 329.498 303.201 329.499Z" fill="white"/>
<path d="M182.129 186.625H173.492C173.015 186.624 172.558 186.434 172.222 186.096C171.885 185.759 171.695 185.302 171.695 184.825C171.695 184.348 171.885 183.89 172.222 183.553C172.558 183.215 173.015 183.025 173.492 183.024H182.129C182.605 183.025 183.063 183.215 183.399 183.553C183.736 183.89 183.925 184.348 183.925 184.825C183.925 185.302 183.736 185.759 183.399 186.096C183.063 186.434 182.605 186.624 182.129 186.625Z" fill="white"/>
<path d="M182.129 192.94H173.492C173.015 192.939 172.558 192.748 172.222 192.411C171.885 192.073 171.695 191.616 171.695 191.139C171.695 190.662 171.885 190.205 172.222 189.867C172.558 189.53 173.015 189.34 173.492 189.339H182.129C182.605 189.34 183.063 189.53 183.399 189.867C183.736 190.205 183.925 190.662 183.925 191.139C183.925 191.616 183.736 192.073 183.399 192.411C183.063 192.748 182.605 192.939 182.129 192.94Z" fill="white"/>
<path d="M182.129 199.254H173.492C173.015 199.253 172.558 199.063 172.222 198.725C171.885 198.388 171.695 197.93 171.695 197.454C171.695 196.977 171.885 196.519 172.222 196.182C172.558 195.844 173.015 195.654 173.492 195.653H182.129C182.605 195.654 183.063 195.844 183.399 196.182C183.736 196.519 183.925 196.977 183.925 197.454C183.925 197.93 183.736 198.388 183.399 198.725C183.063 199.063 182.605 199.253 182.129 199.254Z" fill="white"/>
<path d="M527.798 241.42H447.546C445.395 241.418 443.333 240.562 441.812 239.042C440.291 237.521 439.436 235.459 439.434 233.309V183.886C439.436 181.735 440.291 179.673 441.812 178.153C443.333 176.632 445.395 175.777 447.546 175.774H527.798C529.948 175.777 532.01 176.632 533.531 178.153C535.052 179.673 535.907 181.735 535.91 183.886V233.309C535.907 235.459 535.052 237.521 533.531 239.042C532.01 240.562 529.948 241.418 527.798 241.42Z" fill="#E6E6E6"/>
<path d="M495.912 235.054H453.187C451.173 235.052 449.241 234.251 447.817 232.827C446.393 231.402 445.591 229.471 445.589 227.457V189.737C445.591 187.723 446.393 185.792 447.817 184.367C449.241 182.943 451.173 182.142 453.187 182.14H522.157C524.171 182.142 526.102 182.943 527.526 184.367C528.951 185.792 529.752 187.723 529.754 189.737V201.216C529.744 210.187 526.175 218.788 519.831 225.132C513.486 231.476 504.885 235.044 495.912 235.054Z" fill="white"/>
<path d="M515.276 202.795H460.067C459.589 202.795 459.131 202.605 458.794 202.268C458.456 201.93 458.266 201.472 458.266 200.995C458.266 200.517 458.456 200.059 458.794 199.722C459.131 199.384 459.589 199.194 460.067 199.194H515.276C515.754 199.194 516.212 199.384 516.55 199.722C516.887 200.059 517.077 200.517 517.077 200.995C517.077 201.472 516.887 201.93 516.55 202.268C516.212 202.605 515.754 202.795 515.276 202.795Z" fill="#C9A899"/>
<path d="M468.703 209.909H460.067C459.59 209.908 459.133 209.718 458.796 209.381C458.459 209.043 458.27 208.586 458.27 208.109C458.27 207.632 458.459 207.175 458.796 206.837C459.133 206.499 459.59 206.309 460.067 206.308H468.703C469.18 206.309 469.637 206.499 469.974 206.837C470.311 207.175 470.5 207.632 470.5 208.109C470.5 208.586 470.311 209.043 469.974 209.381C469.637 209.718 469.18 209.908 468.703 209.909Z" fill="#C9A899"/>
<path d="M483.999 217.023H460.067C459.589 217.023 459.131 216.834 458.794 216.496C458.456 216.158 458.266 215.701 458.266 215.223C458.266 214.746 458.456 214.288 458.794 213.95C459.131 213.612 459.589 213.423 460.067 213.423H483.999C484.476 213.423 484.934 213.612 485.272 213.95C485.61 214.288 485.8 214.746 485.8 215.223C485.8 215.701 485.61 216.158 485.272 216.496C484.934 216.834 484.476 217.023 483.999 217.023Z" fill="#C9A899"/>
<path d="M436.633 191.765C446.009 191.765 453.609 184.165 453.609 174.79C453.609 165.415 446.009 157.815 436.633 157.815C427.257 157.815 419.656 165.415 419.656 174.79C419.656 184.165 427.257 191.765 436.633 191.765Z" fill="#844704"/>
<path d="M244.459 45.6608C245.583 39.957 247.819 34.5304 251.041 29.6908C254.262 24.8512 258.405 20.6933 263.233 17.4547C272.984 10.914 284.935 8.5145 296.455 10.784C302.159 11.9077 307.587 14.1439 312.427 17.3648C317.267 20.5857 321.425 24.7284 324.664 29.5562C327.903 34.384 330.159 39.8024 331.304 45.5021C332.448 51.2018 332.459 57.0711 331.335 62.7749L329.786 62.4698C331.975 51.3613 329.66 39.8384 323.352 30.436C317.045 21.0336 307.26 14.5218 296.15 12.3333C285.04 10.1447 273.516 12.4586 264.113 18.766C254.71 25.0733 248.197 34.8574 246.009 45.9659L244.459 45.6608Z" fill="#3F3D56"/>
<path d="M261.271 73.5898L236.188 74.6286C235.652 74.6519 235.118 74.5536 234.625 74.3411C234.133 74.1285 233.695 73.8072 233.344 73.4013C232.998 73.0059 232.746 72.5373 232.607 72.0305C232.468 71.5238 232.446 70.9922 232.541 70.4756C234.466 59.9804 233.905 49.1802 230.903 38.9408C230.672 38.1577 230.719 37.3185 231.036 36.5662C231.354 35.8139 231.923 35.1952 232.646 34.8154C242.92 29.478 252.547 29.2073 261.258 34.01C261.714 34.258 262.111 34.6026 262.421 35.0197C262.731 35.4369 262.946 35.9165 263.051 36.4252C265.318 47.5986 265.862 59.0531 264.663 70.3908C264.58 71.2439 264.19 72.0381 263.567 72.6262C262.943 73.2144 262.128 73.5567 261.271 73.5898Z" fill="#C9A899"/>
<path d="M260.21 57.1741L241.03 57.9684C240.794 57.9784 240.558 57.9417 240.336 57.8605C240.114 57.7792 239.91 57.655 239.735 57.4948C239.561 57.3347 239.42 57.1418 239.321 56.9272C239.221 56.7126 239.165 56.4804 239.155 56.2441C239.145 56.0077 239.182 55.7717 239.264 55.5496C239.345 55.3275 239.47 55.1236 239.63 54.9496C239.79 54.7756 239.983 54.6349 240.198 54.5356C240.413 54.4362 240.645 54.3801 240.881 54.3706L260.061 53.5763C260.297 53.5665 260.533 53.6033 260.755 53.6847C260.977 53.7661 261.181 53.8903 261.355 54.0505C261.529 54.2106 261.669 54.4034 261.769 54.6179C261.868 54.8325 261.924 55.0645 261.934 55.3007C261.944 55.5369 261.907 55.7728 261.826 55.9948C261.744 56.2168 261.62 56.4206 261.46 56.5946C261.3 56.7685 261.107 56.9093 260.892 57.0087C260.678 57.1081 260.446 57.1644 260.21 57.1741Z" fill="white"/>
<path d="M259.948 50.8651L240.769 51.6594C240.292 51.6792 239.826 51.5086 239.475 51.1852C239.124 50.8618 238.915 50.4121 238.895 49.935C238.876 49.4579 239.046 48.9925 239.37 48.6411C239.693 48.2898 240.143 48.0813 240.62 48.0616L259.799 47.2673C260.276 47.2475 260.742 47.4181 261.093 47.7415C261.445 48.0649 261.653 48.5146 261.673 48.9917C261.693 49.4688 261.522 49.9342 261.199 50.2856C260.875 50.6369 260.425 50.8454 259.948 50.8651Z" fill="white"/>
<path d="M425.428 65.646H345.176C343.025 65.6436 340.963 64.7882 339.442 63.2675C337.921 61.7468 337.066 59.6851 337.064 57.5345V8.11148C337.066 5.96094 337.921 3.89916 339.442 2.37849C340.963 0.857821 343.025 0.00243797 345.176 0H425.428C427.579 0.00242961 429.64 0.857809 431.161 2.37848C432.682 3.89915 433.538 5.96093 433.54 8.11148V57.5345C433.538 59.6851 432.682 61.7468 431.161 63.2675C429.64 64.7882 427.579 65.6436 425.428 65.646Z" fill="#E6E6E6"/>
<path d="M393.542 59.28H350.817C348.803 59.2777 346.872 58.4767 345.447 57.0525C344.023 55.6284 343.222 53.6974 343.219 51.6833V13.9626C343.222 11.9485 344.023 10.0175 345.447 8.59338C346.872 7.16922 348.803 6.36816 350.817 6.36594H419.787C421.801 6.36817 423.732 7.16925 425.157 8.59341C426.581 10.0176 427.382 11.9485 427.384 13.9626V25.4418C427.374 34.4132 423.805 43.0142 417.461 49.3579C411.117 55.7016 402.515 59.2699 393.542 59.28Z" fill="white"/>
<path d="M412.906 27.021H357.697C357.22 27.021 356.762 26.8313 356.424 26.4936C356.086 26.156 355.897 25.698 355.897 25.2206C355.897 24.7431 356.086 24.2851 356.424 23.9475C356.762 23.6098 357.22 23.4202 357.697 23.4202H412.906C413.384 23.4202 413.842 23.6098 414.18 23.9475C414.517 24.2851 414.707 24.7431 414.707 25.2206C414.707 25.698 414.517 26.156 414.18 26.4936C413.842 26.8313 413.384 27.021 412.906 27.021Z" fill="#C9A899"/>
<path d="M366.333 34.1352H357.697C357.22 34.1342 356.763 33.9441 356.426 33.6065C356.089 33.269 355.9 32.8116 355.9 32.3347C355.9 31.8579 356.089 31.4005 356.426 31.0629C356.763 30.7254 357.22 30.5352 357.697 30.5342H366.333C366.81 30.5352 367.267 30.7254 367.604 31.0629C367.941 31.4005 368.13 31.8579 368.13 32.3347C368.13 32.8116 367.941 33.269 367.604 33.6065C367.267 33.9441 366.81 34.1342 366.333 34.1352Z" fill="#C9A899"/>
<path d="M381.629 41.2494H357.697C357.22 41.2494 356.762 41.0597 356.424 40.7221C356.086 40.3844 355.896 39.9265 355.896 39.449C355.896 38.9714 356.086 38.5135 356.424 38.1758C356.762 37.8382 357.22 37.6485 357.697 37.6485H381.629C382.106 37.6495 382.563 37.8396 382.9 38.1772C383.237 38.5147 383.426 38.9721 383.426 39.449C383.426 39.9258 383.237 40.3832 382.9 40.7208C382.563 41.0583 382.106 41.2484 381.629 41.2494Z" fill="#C9A899"/>
<path d="M346.602 74.2017C351.551 66.2397 349.109 55.773 341.146 50.8236C333.183 45.8743 322.716 48.3166 317.766 56.2786C312.816 64.2407 315.259 74.7074 323.221 79.6567C331.184 84.606 341.652 82.1637 346.602 74.2017Z" fill="#844704"/>
<path d="M713.274 464H480.036C479.844 464 479.659 463.924 479.523 463.787C479.387 463.651 479.311 463.467 479.311 463.274C479.311 463.082 479.387 462.897 479.523 462.761C479.659 462.625 479.844 462.549 480.036 462.549H713.274C713.467 462.549 713.651 462.625 713.787 462.761C713.924 462.897 714 463.082 714 463.274C714 463.467 713.924 463.651 713.787 463.787C713.651 463.924 713.467 464 713.274 464Z" fill="#CCCCCC"/>
<path d="M106.036 197.665C99.0705 179.254 99.7051 158.83 107.8 140.887C115.894 122.944 130.786 108.951 149.199 101.987C167.611 95.0226 188.037 95.6572 205.981 103.751C223.926 111.845 237.92 126.735 244.885 145.146L243.408 145.705C240.033 136.783 234.933 128.613 228.4 121.661C221.867 114.71 214.028 109.113 205.332 105.19C196.636 101.268 187.252 99.0967 177.717 98.8004C168.181 98.5042 158.681 100.089 149.758 103.464C140.834 106.839 132.664 111.938 125.712 118.471C118.759 125.003 113.162 132.841 109.239 141.536C105.317 150.232 103.145 159.615 102.849 169.149C102.552 178.684 104.137 188.184 107.513 197.106L106.036 197.665Z" fill="#3F3D56"/>
<path d="M170.967 124.151H145.862C145.325 124.152 144.796 124.032 144.312 123.799C143.829 123.566 143.405 123.227 143.072 122.807C142.742 122.398 142.51 121.919 142.392 121.407C142.274 120.895 142.273 120.363 142.39 119.851C144.767 109.362 144.633 98.4611 141.998 88.0346C141.811 87.2968 141.869 86.5182 142.161 85.8157C142.454 85.1131 142.967 84.5243 143.622 84.1374C152.716 78.8443 162.428 79.0058 172.486 84.6188C172.962 84.8785 173.373 85.2434 173.687 85.6858C174 86.1283 174.209 86.6365 174.296 87.1717C176.086 98.4039 176.151 109.843 174.488 121.095C174.37 121.944 173.948 122.721 173.3 123.283C172.653 123.845 171.824 124.153 170.967 124.151Z" fill="#C9A899"/>
<path d="M159.237 99.8019H150.6C150.124 99.8009 149.667 99.6108 149.33 99.2733C148.993 98.9357 148.804 98.4783 148.804 98.0015C148.804 97.5246 148.993 97.0672 149.33 96.7297C149.667 96.3921 150.124 96.202 150.6 96.201H159.237C159.714 96.202 160.171 96.3921 160.507 96.7297C160.844 97.0672 161.034 97.5246 161.034 98.0015C161.034 98.4783 160.844 98.9357 160.507 99.2733C160.171 99.6108 159.714 99.8009 159.237 99.8019Z" fill="white"/>
<path d="M169.796 106.916H150.6C150.123 106.916 149.665 106.726 149.327 106.389C148.99 106.051 148.8 105.593 148.8 105.116C148.8 104.638 148.99 104.18 149.327 103.843C149.665 103.505 150.123 103.315 150.6 103.315H169.796C170.273 103.316 170.73 103.506 171.067 103.844C171.404 104.181 171.593 104.639 171.593 105.116C171.593 105.593 171.404 106.05 171.067 106.387C170.73 106.725 170.273 106.915 169.796 106.916Z" fill="white"/>
<path d="M88.3642 196.67H8.1122C5.96145 196.668 3.89949 195.812 2.37868 194.292C0.857875 192.771 0.00242565 190.709 0 188.559V139.136C0.00242565 136.985 0.857875 134.923 2.37868 133.403C3.89949 131.882 5.96145 131.027 8.1122 131.024H88.3642C90.5149 131.027 92.5769 131.882 94.0977 133.403C95.6185 134.923 96.474 136.985 96.4764 139.136V188.559C96.474 190.709 95.6185 192.771 94.0977 194.292C92.5769 195.812 90.5149 196.668 88.3642 196.67Z" fill="#E6E6E6"/>
<path d="M56.4788 190.304H13.7534C11.7391 190.302 9.80798 189.501 8.38361 188.077C6.95925 186.653 6.15802 184.722 6.1557 182.707V144.987C6.15802 142.973 6.95925 141.042 8.38361 139.618C9.80798 138.193 11.7391 137.392 13.7534 137.39H82.7233C84.7375 137.392 86.6686 138.193 88.0929 139.618C89.5172 141.042 90.3184 142.973 90.3206 144.987V156.466C90.3104 165.437 86.7417 174.038 80.3973 180.382C74.0529 186.726 65.4511 190.294 56.4788 190.304Z" fill="white"/>
<path d="M75.8429 158.045H20.6335C20.156 158.045 19.698 157.855 19.3603 157.518C19.0226 157.18 18.8329 156.722 18.8329 156.245C18.8329 155.767 19.0226 155.309 19.3603 154.972C19.698 154.634 20.156 154.444 20.6335 154.444H75.8429C76.3204 154.444 76.7784 154.634 77.1161 154.972C77.4538 155.309 77.6435 155.767 77.6435 156.245C77.6435 156.722 77.4538 157.18 77.1161 157.518C76.7784 157.855 76.3204 158.045 75.8429 158.045Z" fill="#C9A899"/>
<path d="M29.2697 165.159H20.6335C20.1566 165.158 19.6995 164.968 19.3627 164.631C19.0258 164.293 18.8366 163.836 18.8366 163.359C18.8366 162.882 19.0258 162.425 19.3627 162.087C19.6995 161.75 20.1566 161.559 20.6335 161.558H29.2697C29.7466 161.559 30.2036 161.75 30.5405 162.087C30.8774 162.425 31.0666 162.882 31.0666 163.359C31.0666 163.836 30.8774 164.293 30.5405 164.631C30.2036 164.968 29.7466 165.158 29.2697 165.159Z" fill="#C9A899"/>
<path d="M44.5654 172.274H20.6335C20.1566 172.273 19.6995 172.082 19.3627 171.745C19.0258 171.407 18.8366 170.95 18.8366 170.473C18.8366 169.996 19.0258 169.539 19.3627 169.201C19.6995 168.864 20.1566 168.674 20.6335 168.673H44.5654C45.043 168.673 45.501 168.862 45.8387 169.2C46.1764 169.538 46.3661 169.996 46.3661 170.473C46.3661 170.951 46.1764 171.409 45.8387 171.746C45.501 172.084 45.043 172.274 44.5654 172.274Z" fill="#C9A899"/>
<path d="M120.051 203.647C125 195.685 122.558 185.219 114.595 180.269C106.632 175.32 96.1646 177.762 91.2148 185.724C86.265 193.686 88.7076 204.153 96.6703 209.102C104.633 214.052 115.101 211.609 120.051 203.647Z" fill="#844704"/>
<path d="M257.009 171.509H231.904C231.367 171.51 230.838 171.39 230.354 171.157C229.871 170.924 229.447 170.585 229.114 170.165C228.784 169.756 228.552 169.277 228.434 168.765C228.316 168.253 228.315 167.721 228.432 167.209C230.805 156.739 230.675 145.857 228.054 135.447C227.868 134.699 227.931 133.911 228.234 133.201C228.536 132.492 229.062 131.901 229.731 131.518C241.926 124.538 251.583 124.73 259.253 132.107C259.791 132.633 260.145 133.319 260.263 134.062C262.126 145.443 262.216 157.044 260.53 168.453C260.412 169.302 259.99 170.08 259.342 170.641C258.695 171.203 257.866 171.511 257.009 171.509Z" fill="#844704"/>
<path d="M246.857 147.949H238.221C237.744 147.948 237.287 147.758 236.95 147.421C236.614 147.083 236.424 146.626 236.424 146.149C236.424 145.672 236.614 145.215 236.95 144.877C237.287 144.54 237.744 144.349 238.221 144.348H246.857C247.334 144.349 247.791 144.54 248.128 144.877C248.465 145.215 248.654 145.672 248.654 146.149C248.654 146.626 248.465 147.083 248.128 147.421C247.791 147.758 247.334 147.948 246.857 147.949Z" fill="white"/>
<path d="M257.417 155.064H238.221C237.744 155.064 237.286 154.874 236.948 154.536C236.61 154.199 236.421 153.741 236.421 153.263C236.421 152.786 236.61 152.328 236.948 151.99C237.286 151.652 237.744 151.463 238.221 151.463H257.417C257.894 151.464 258.351 151.654 258.688 151.991C259.025 152.329 259.214 152.786 259.214 153.263C259.214 153.74 259.025 154.197 258.688 154.535C258.351 154.872 257.894 155.063 257.417 155.064Z" fill="white"/>
</g>
<defs>
<clipPath id="clip0_11_2">
<rect width="714" height="464" fill="white"/>
</clipPath>
</defs>
</svg>
