<svg width="23" height="22" viewBox="0 0 23 22" fill="none" xmlns="http://www.w3.org/2000/svg">
<g clip-path="url(#clip0_11_113)">
<ellipse cx="11.5" cy="11" rx="11.5" ry="11" fill="#C9A899"/>
<path d="M15.5896 11.1033C16.6217 11.1033 17.4583 11.9406 17.4583 12.9733V13.5967C17.4583 16.0544 15.1417 18.5833 11.2292 18.5833C7.31664 18.5833 5 16.0544 5 13.5967V12.9733C5 11.9406 5.83667 11.1033 6.86875 11.1033H15.5896ZM11.2292 3C13.1213 3 14.6552 4.53492 14.6552 6.42833C14.6552 8.32175 13.1213 9.85667 11.2292 9.85667C9.33702 9.85667 7.80312 8.32175 7.80312 6.42833C7.80312 4.53492 9.33702 3 11.2292 3Z" fill="#844704"/>
</g>
<defs>
<clipPath id="clip0_11_113">
<rect width="23" height="22" fill="white"/>
</clipPath>
</defs>
</svg>
